<?xml version="1.0" standalone="no"?>
<!DOCTYPE svg PUBLIC "-//W3C//DTD SVG 20010904//EN"
 "http://www.w3.org/TR/2001/REC-SVG-20010904/DTD/svg10.dtd">
<svg version="1.0" xmlns="http://www.w3.org/2000/svg"
 width="218.000000pt" height="218.000000pt" viewBox="0 0 218.000000 218.000000"
 preserveAspectRatio="xMidYMid meet">

<g transform="translate(0.000000,218.000000) scale(0.100000,-0.100000)"
fill="#000000" stroke="none">
<path d="M935 2155 c-425 -63 -777 -380 -887 -800 -34 -132 -34 -398 0 -530
72 -274 256 -517 507 -667 340 -204 800 -188 1136 40 262 177 419 433 468 759
28 185 -8 413 -93 590 -105 218 -286 403 -501 511 -127 63 -343 113 -480 111
-33 -1 -100 -7 -150 -14z m637 -701 c31 -28 50 -81 43 -118 -5 -23 -78 -102
-303 -328 -312 -313 -321 -320 -389 -303 -31 7 -315 282 -339 327 -46 88 22
188 119 175 35 -5 54 -20 141 -106 56 -56 106 -101 111 -101 6 0 109 99 230
221 121 122 234 230 250 241 37 24 106 20 137 -8z"/>
</g>
</svg>
