<?xml version="1.0" standalone="no"?>
<!DOCTYPE svg PUBLIC "-//W3C//DTD SVG 20010904//EN"
 "http://www.w3.org/TR/2001/REC-SVG-20010904/DTD/svg10.dtd">
<svg version="1.0" xmlns="http://www.w3.org/2000/svg"
 width="126.000000pt" height="126.000000pt" viewBox="0 0 126.000000 126.000000"
 preserveAspectRatio="xMidYMid meet">

<g transform="translate(0.000000,126.000000) scale(0.100000,-0.100000)"
fill="#000000" stroke="none">
<path d="M280 1085 c-20 -21 -22 -29 -13 -45 10 -14 9 -21 -3 -31 -13 -10 -13
-14 1 -28 13 -15 13 -19 -2 -34 -13 -13 -14 -19 -3 -31 10 -13 10 -19 0 -31
-10 -12 2 -31 78 -112 124 -135 126 -137 141 -119 10 12 17 13 31 4 14 -9 22
-9 36 3 13 11 18 11 21 2 7 -20 27 -15 53 12 30 32 34 31 61 -6 l21 -30 -27
-29 c-23 -24 -26 -32 -16 -44 10 -11 9 -19 -1 -35 -10 -16 -10 -23 0 -33 9 -9
9 -15 -3 -27 -12 -14 -1 -29 94 -131 96 -102 110 -113 125 -101 13 11 19 11
31 1 12 -10 18 -10 30 0 12 10 18 10 30 0 12 -10 18 -10 29 -1 11 9 19 9 35
-1 19 -11 24 -9 53 20 l33 32 -90 92 c-155 160 -364 377 -533 556 -90 95 -169
172 -176 172 -7 0 -23 -11 -36 -25z m84 -81 c4 -9 1 -23 -5 -30 -9 -11 -8 -18
1 -29 10 -12 10 -18 0 -30 -10 -12 -10 -18 0 -31 11 -12 10 -18 -3 -32 -13
-13 -19 -14 -29 -4 -10 10 -10 17 0 33 10 16 10 24 1 35 -9 11 -9 17 1 29 10
12 10 18 0 30 -10 12 -10 18 0 30 16 19 26 19 34 -1z m61 -90 c-14 -10 -14
-15 -3 -33 10 -16 10 -23 0 -33 -10 -10 -16 -9 -29 4 -13 14 -14 20 -3 32 10
13 10 19 0 31 -10 12 -10 18 0 30 11 14 15 14 32 -2 18 -16 18 -18 3 -29z m-5
-99 c13 -16 6 -35 -15 -35 -18 0 -28 17 -21 35 7 19 20 19 36 0z m370 -289
c-10 -13 -10 -19 0 -31 9 -11 10 -18 1 -29 -6 -7 -9 -21 -5 -30 7 -19 9 -19
34 -4 29 18 50 -4 32 -33 -10 -16 -10 -24 -1 -35 9 -11 9 -17 -1 -29 -12 -14
-15 -14 -32 1 -16 16 -17 19 -3 34 14 15 14 18 0 30 -12 10 -18 10 -30 0 -12
-10 -18 -10 -30 0 -14 12 -14 15 1 31 14 15 14 21 4 34 -10 12 -10 18 0 30 10
12 10 18 0 30 -10 12 -10 18 0 31 12 13 15 13 28 0 13 -12 13 -18 2 -30z m59
-62 c-14 -14 -17 -14 -29 0 -10 13 -10 19 0 32 12 14 15 14 29 0 14 -15 14
-17 0 -32z"/>
<path d="M375 430 c10 -11 20 -20 23 -20 3 0 -3 9 -13 20 -10 11 -20 20 -23
20 -3 0 3 -9 13 -20z"/>
<path d="M338 333 l-67 -67 -28 24 c-15 14 -3 -1 27 -33 l55 -57 74 75 75 74
-24 26 c-13 14 -28 25 -34 25 -6 0 -41 -30 -78 -67z"/>
</g>
</svg>
