<?xml version="1.0" standalone="no"?>
<!DOCTYPE svg PUBLIC "-//W3C//DTD SVG 20010904//EN"
 "http://www.w3.org/TR/2001/REC-SVG-20010904/DTD/svg10.dtd">
<svg version="1.0" xmlns="http://www.w3.org/2000/svg"
 width="218.000000pt" height="218.000000pt" viewBox="0 0 218.000000 218.000000"
 preserveAspectRatio="xMidYMid meet">

<g transform="translate(0.000000,218.000000) scale(0.100000,-0.100000)"
fill="#000000" stroke="none">
<path d="M825 2170 c-54 -22 -134 -148 -189 -296 -27 -71 -27 -72 -69 -78 -65
-10 -177 -53 -203 -77 -28 -27 -31 -60 -6 -82 24 -22 107 -56 172 -71 l55 -13
6 -59 c3 -32 10 -80 14 -106 l7 -48 -137 0 c-106 0 -136 -3 -132 -12 54 -128
107 -263 105 -269 -2 -4 -26 -25 -54 -47 -55 -43 -118 -131 -147 -202 -10 -25
-30 -92 -44 -150 -22 -90 -26 -128 -27 -265 -1 -145 1 -165 21 -207 29 -63 93
-124 162 -157 l56 -26 680 0 680 0 56 26 c69 33 133 94 162 157 20 42 22 62
21 202 -2 322 -81 529 -244 643 -23 16 -23 17 -8 64 9 26 32 90 52 141 20 52
36 96 36 98 0 2 -61 4 -136 4 l-136 0 7 48 c4 26 11 74 14 106 l6 59 55 13
c65 15 148 49 173 71 24 22 21 55 -7 82 -26 24 -138 67 -203 77 -42 6 -42 7
-69 78 -38 103 -98 212 -142 257 -57 61 -98 63 -206 10 -46 -22 -97 -41 -113
-41 -15 0 -64 18 -108 40 -78 39 -120 47 -160 30z m170 -675 c88 -14 111 -14
201 0 108 16 192 19 243 9 24 -5 31 -12 31 -30 0 -13 -4 -24 -9 -24 -5 0 -18
-26 -30 -57 -37 -97 -68 -123 -149 -123 -66 0 -106 22 -127 70 -47 107 -67
113 -106 30 -37 -76 -58 -92 -126 -98 -85 -7 -114 12 -163 113 -46 94 -49 112
-17 118 49 10 157 6 252 -8z m-147 -534 c68 -34 85 -49 133 -113 31 -40 59
-78 63 -85 6 -11 -11 -107 -54 -298 -11 -49 -29 -132 -39 -184 -11 -51 -22
-95 -24 -97 -2 -2 -13 47 -25 109 -25 130 -129 651 -137 685 -3 12 -3 22 0 22
3 0 40 -18 83 -39z m577 17 c-8 -34 -112 -555 -137 -685 -12 -62 -23 -111 -25
-109 -2 2 -13 46 -24 97 -10 52 -28 135 -39 184 -43 191 -60 287 -54 298 4 7
32 45 63 85 47 63 66 79 131 112 41 22 78 39 83 40 4 0 5 -10 2 -22z"/>
</g>
</svg>
