<?xml version="1.0" standalone="no"?>
<!DOCTYPE svg PUBLIC "-//W3C//DTD SVG 20010904//EN"
 "http://www.w3.org/TR/2001/REC-SVG-20010904/DTD/svg10.dtd">
<svg version="1.0" xmlns="http://www.w3.org/2000/svg"
 width="218.000000pt" height="218.000000pt" viewBox="0 0 218.000000 218.000000"
 preserveAspectRatio="xMidYMid meet">

<g transform="translate(0.000000,218.000000) scale(0.100000,-0.100000)"
fill="#000000" stroke="none">
<path d="M916 2164 c-265 -44 -529 -201 -685 -408 -177 -233 -259 -532 -221
-799 47 -325 222 -606 480 -772 153 -99 289 -150 464 -172 102 -14 138 -14
231 -4 114 12 233 37 250 52 5 5 15 9 23 9 26 0 165 70 246 124 176 118 308
282 393 487 48 118 83 291 83 409 0 65 -23 222 -43 295 -38 136 -132 311 -225
417 -248 283 -634 423 -996 362z m397 -168 c298 -76 528 -276 646 -564 60
-145 79 -373 45 -538 -19 -89 -75 -228 -125 -305 l-33 -52 -26 84 c-15 46 -37
104 -49 128 -34 66 -111 136 -176 160 -81 31 -120 28 -169 -13 -189 -155 -482
-155 -673 0 -49 40 -88 44 -163 15 -66 -25 -133 -81 -167 -139 -16 -25 -42
-89 -59 -140 l-31 -94 -33 52 c-49 76 -106 215 -124 304 -10 47 -16 126 -16
200 1 220 55 380 192 568 118 161 318 290 528 339 119 27 313 25 433 -5z"/>
<path d="M971 1774 c-148 -40 -276 -160 -326 -309 -17 -50 -24 -144 -14 -210
31 -227 226 -395 459 -395 282 0 496 243 460 522 -14 108 -53 188 -130 267
-118 121 -289 168 -449 125z"/>
</g>
</svg>
